<svg width="149" height="18" viewBox="0 0 149 18" fill="none" xmlns="http://www.w3.org/2000/svg">
<path d="M0.379028 0.377632H13.5779V2.45667H8.17266V17.703H5.78429V2.45667H0.379028V0.377632Z" fill="#F89BA4"/>
<path d="M27.1519 9.80757H18.4784V17.703H16.09V0.377632H18.4784V7.77803H27.1519V0.377632H29.5403V17.703H27.1519V9.80757Z" fill="#F89BA4"/>
<path d="M34.0617 0.377632H44.6208V2.40717H36.4501V7.67903H43.4895V9.65907H36.4501V15.6734H44.6208V17.703H34.0617V0.377632Z" fill="#F89BA4"/>
<path d="M49.44 9.01555C49.44 10.0551 49.5741 11.0038 49.8422 11.8619C50.1272 12.7034 50.5127 13.4294 50.9987 14.0399C51.5015 14.6504 52.0965 15.1207 52.7837 15.4507C53.4709 15.7807 54.2251 15.9457 55.0464 15.9457C55.8676 15.9457 56.58 15.8549 57.1833 15.6734C57.7867 15.4754 58.3733 15.2114 58.9432 14.8814L59.6723 16.8367C59.0521 17.1667 58.3398 17.4472 57.5353 17.6782C56.7476 17.8927 55.8257 18 54.7698 18C53.6133 18 52.5574 17.7937 51.6021 17.3812C50.6635 16.9687 49.8506 16.3829 49.1634 15.6239C48.4763 14.8484 47.9399 13.9161 47.5544 12.8271C47.1857 11.7216 47.0013 10.4841 47.0013 9.11456C47.0013 7.79453 47.1857 6.58176 47.5544 5.47623C47.9399 4.37071 48.4846 3.42194 49.1886 2.62993C49.8925 1.82141 50.7389 1.1944 51.7278 0.748889C52.7334 0.303381 53.848 0.0806274 55.0715 0.0806274C55.9263 0.0806274 56.6889 0.163129 57.3593 0.328132C58.0465 0.476635 58.6918 0.691139 59.2952 0.971644L58.5661 2.95168C58.0465 2.70418 57.5102 2.50618 56.9571 2.35767C56.4207 2.20917 55.7838 2.13492 55.0464 2.13492C54.2419 2.13492 53.496 2.29167 52.8088 2.60518C52.1217 2.90218 51.5267 3.34769 51.0239 3.9417C50.521 4.53571 50.1272 5.26173 49.8422 6.11975C49.5741 6.96126 49.44 7.92653 49.44 9.01555Z" fill="#F89BA4"/>
<path d="M60.923 17.0842L67.8116 0.377632H70.4262L77.2142 17.0842L75.027 17.9505L73.066 13.0004H64.9204L62.9594 17.901L60.923 17.0842ZM65.6746 11.0203H72.2866L68.9932 2.70418L65.6746 11.0203Z" fill="#F89BA4"/>
<path d="M79.7275 0.427134C80.4314 0.344633 81.1857 0.286881 81.9902 0.25388C82.8114 0.20438 83.6746 0.17963 84.5797 0.17963C85.6691 0.17963 86.6412 0.311632 87.496 0.575637C88.3508 0.839641 89.0715 1.20265 89.6581 1.66466C90.2447 2.12667 90.6889 2.68768 90.9905 3.34769C91.2922 3.9912 91.4431 4.69247 91.4431 5.45148C91.4431 6.3755 91.2587 7.20052 90.89 7.92653C90.538 8.63605 90.0352 9.23831 89.3815 9.73332C88.7446 10.2283 87.9737 10.6078 87.0686 10.8718C86.1635 11.1193 85.1663 11.2431 84.0768 11.2431C83.3729 11.2431 82.7192 11.2183 82.1159 11.1688V17.703H79.7275V0.427134ZM84.3785 9.28781C85.887 9.28781 87.0434 8.96605 87.8479 8.32254C88.6692 7.66253 89.0798 6.77151 89.0798 5.64949C89.0798 4.57697 88.686 3.7272 87.8982 3.10019C87.1273 2.47317 86.0043 2.15967 84.5294 2.15967C84.0768 2.15967 83.6495 2.16792 83.2472 2.18442C82.8449 2.20092 82.4678 2.22567 82.1159 2.25867V9.16406C82.384 9.19706 82.7025 9.23006 83.0712 9.26306C83.4567 9.27956 83.8925 9.28781 84.3785 9.28781Z" fill="#F89BA4"/>
<path d="M93.7884 14.2627C94.3918 14.7577 95.0706 15.1619 95.8248 15.4754C96.5791 15.7889 97.459 15.9457 98.4646 15.9457C99.6714 15.9457 100.627 15.6982 101.331 15.2032C102.035 14.7082 102.387 14.0399 102.387 13.1984C102.387 12.8519 102.336 12.5301 102.236 12.2331C102.135 11.9361 101.934 11.6556 101.632 11.3916C101.347 11.1111 100.937 10.8388 100.4 10.5748C99.8809 10.2943 99.2021 9.99732 98.364 9.68382C97.459 9.33731 96.688 8.99905 96.0511 8.66905C95.431 8.32254 94.9281 7.95128 94.5427 7.55527C94.1572 7.14277 93.8806 6.69726 93.713 6.21875C93.5454 5.72374 93.4616 5.16273 93.4616 4.53572C93.4616 3.9252 93.5873 3.34769 93.8387 2.80318C94.1069 2.25867 94.4924 1.78841 94.9952 1.3924C95.5148 0.979895 96.1433 0.658139 96.8807 0.427134C97.635 0.19613 98.4898 0.0806274 99.4451 0.0806274C100.484 0.0806274 101.414 0.187879 102.236 0.402383C103.057 0.600387 103.87 0.889143 104.674 1.26865L103.794 3.27344C103.225 2.94343 102.554 2.67118 101.783 2.45667C101.029 2.22567 100.233 2.11017 99.3948 2.11017C98.2886 2.11017 97.4171 2.32467 96.7802 2.75368C96.1433 3.16619 95.8248 3.71895 95.8248 4.41196C95.8248 4.74197 95.8667 5.03897 95.9505 5.30298C96.0511 5.55048 96.2355 5.79799 96.5036 6.0455C96.7886 6.2765 97.1741 6.51575 97.6601 6.76326C98.1629 7.01076 98.825 7.28302 99.6462 7.58003C100.618 7.94303 101.44 8.31429 102.11 8.6938C102.78 9.0733 103.317 9.47756 103.719 9.90657C104.121 10.3356 104.406 10.7976 104.574 11.2926C104.758 11.7876 104.85 12.3321 104.85 12.9261C104.85 13.7346 104.691 14.4524 104.373 15.0794C104.054 15.7064 103.61 16.2427 103.04 16.6882C102.487 17.1172 101.817 17.4472 101.029 17.6782C100.241 17.8927 99.3864 18 98.4646 18C97.2411 18 96.1265 17.8432 95.1209 17.5297C94.1153 17.1997 93.2689 16.7707 92.5817 16.2427L93.7884 14.2627Z" fill="#F89BA4"/>
<path d="M118.762 0.377632H121.075V11.0203C121.075 12.1094 120.916 13.0911 120.597 13.9657C120.296 14.8237 119.852 15.5579 119.265 16.1684C118.695 16.7625 118.008 17.2162 117.203 17.5297C116.399 17.8432 115.502 18 114.513 18C112.469 18 110.868 17.4142 109.712 16.2427C108.572 15.0547 108.002 13.3469 108.002 11.1193V0.377632H110.39V10.7481C110.39 12.4146 110.726 13.7016 111.396 14.6092C112.083 15.5002 113.122 15.9457 114.513 15.9457C115.938 15.9457 117.002 15.5084 117.706 14.6339C118.41 13.7429 118.762 12.4476 118.762 10.7481V0.377632Z" fill="#F89BA4"/>
<path d="M135.68 17.703H125.221V0.377632H127.61V15.5992H135.68V17.703Z" fill="#F89BA4"/>
<path d="M138.062 0.377632H148.621V2.40717H140.45V7.67903H147.49V9.65907H140.45V15.6734H148.621V17.703H138.062V0.377632Z" fill="#F89BA4"/>
</svg>
